<svg width="64" height="52" viewBox="0 0 64 52" fill="none" xmlns="http://www.w3.org/2000/svg">
<path d="M22.5339 39.5773H21.5355C21.4971 39.364 21.4256 39.1762 21.3211 39.0141C21.2165 38.852 21.0885 38.7143 20.937 38.6013C20.7856 38.4882 20.616 38.4029 20.4282 38.3453C20.2426 38.2877 20.0452 38.2589 19.8362 38.2589C19.4585 38.2589 19.1204 38.3538 18.8217 38.5437C18.5252 38.7335 18.2905 39.012 18.1177 39.3789C17.947 39.7459 17.8617 40.1939 17.8617 40.723C17.8617 41.2564 17.947 41.7065 18.1177 42.0735C18.2905 42.4404 18.5262 42.7178 18.8249 42.9055C19.1236 43.0933 19.4596 43.1872 19.833 43.1872C20.0399 43.1872 20.2362 43.1594 20.4218 43.1039C20.6096 43.0463 20.7792 42.9621 20.9306 42.8511C21.0821 42.7402 21.2101 42.6047 21.3147 42.4447C21.4213 42.2826 21.4949 42.097 21.5355 41.8879L22.5339 41.8911C22.4806 42.2132 22.3771 42.5098 22.2235 42.7807C22.072 43.0495 21.8768 43.2821 21.6379 43.4784C21.4011 43.6725 21.1301 43.8229 20.825 43.9296C20.5199 44.0363 20.1871 44.0896 19.8266 44.0896C19.2591 44.0896 18.7534 43.9552 18.3097 43.6864C17.8659 43.4154 17.516 43.0282 17.26 42.5247C17.0061 42.0212 16.8792 41.4206 16.8792 40.723C16.8792 40.0232 17.0072 39.4227 17.2632 38.9213C17.5192 38.4178 17.8691 38.0316 18.3129 37.7628C18.7566 37.4919 19.2612 37.3564 19.8266 37.3564C20.1743 37.3564 20.4986 37.4065 20.7994 37.5068C21.1024 37.6049 21.3744 37.75 21.6155 37.942C21.8566 38.1319 22.056 38.3645 22.2139 38.6397C22.3718 38.9128 22.4785 39.2253 22.5339 39.5773ZM26.889 37.446V44H25.9322V37.446H26.889ZM33.5819 41.9615V39.0845H34.5419V44H33.6011V43.1487H33.5499C33.4368 43.4112 33.2555 43.6298 33.0058 43.8048C32.7584 43.9776 32.4501 44.064 32.081 44.064C31.7652 44.064 31.4858 43.9947 31.2425 43.856C31.0015 43.7152 30.8116 43.5072 30.6729 43.232C30.5364 42.9567 30.4681 42.6164 30.4681 42.2111V39.0845H31.425V42.0959C31.425 42.4308 31.5178 42.6975 31.7034 42.8959C31.889 43.0943 32.1301 43.1936 32.4266 43.1936C32.6058 43.1936 32.784 43.1487 32.961 43.0591C33.1403 42.9695 33.2885 42.8341 33.4059 42.6527C33.5253 42.4714 33.584 42.241 33.5819 41.9615ZM38.1962 44V37.446H39.1531V39.8814H39.2107C39.2661 39.7789 39.3461 39.6605 39.4507 39.5261C39.5552 39.3917 39.7003 39.2744 39.8859 39.1741C40.0715 39.0717 40.3169 39.0205 40.6219 39.0205C41.0188 39.0205 41.3729 39.1208 41.6844 39.3213C41.9959 39.5219 42.2402 39.8109 42.4173 40.1886C42.5965 40.5662 42.6861 41.0206 42.6861 41.5519C42.6861 42.0831 42.5975 42.5386 42.4205 42.9183C42.2434 43.296 42.0002 43.5872 41.6908 43.792C41.3815 43.9947 41.0284 44.096 40.6315 44.096C40.3329 44.096 40.0886 44.0459 39.8987 43.9456C39.711 43.8453 39.5638 43.728 39.4571 43.5936C39.3504 43.4592 39.2683 43.3397 39.2107 43.2352H39.1307V44H38.1962ZM39.1339 41.5423C39.1339 41.8879 39.184 42.1908 39.2843 42.4511C39.3845 42.7114 39.5296 42.9151 39.7195 43.0623C39.9094 43.2074 40.1419 43.28 40.4171 43.28C40.703 43.28 40.942 43.2042 41.134 43.0527C41.326 42.8991 41.4711 42.6911 41.5692 42.4287C41.6695 42.1663 41.7196 41.8708 41.7196 41.5423C41.7196 41.218 41.6705 40.9267 41.5724 40.6686C41.4764 40.4105 41.3313 40.2067 41.1372 40.0574C40.9452 39.908 40.7052 39.8333 40.4171 39.8333C40.1398 39.8333 39.9051 39.9048 39.7131 40.0478C39.5232 40.1907 39.3792 40.3902 39.2811 40.6462C39.1829 40.9022 39.1339 41.2009 39.1339 41.5423Z" fill="#232426"/>
<path d="M1.58643 50.6591L9.9177 1.34091H62.4136L54.0823 50.6591H1.58643Z" stroke="#232426" stroke-width="2.68182"/>
<path d="M12.0421 34L15.62 12.4482H24.9227C26.5222 12.4482 27.8727 12.7393 28.9742 13.3216C30.0756 13.9039 30.8684 14.7423 31.3525 15.8367C31.8365 16.9311 31.9523 18.243 31.6997 19.7724C31.4472 21.3158 30.8894 22.6172 30.0265 23.6766C29.1706 24.7289 28.0797 25.5287 26.7538 26.0759C25.4348 26.6161 23.9545 26.8862 22.3129 26.8862H16.7566L17.5142 22.3401H21.892C22.5795 22.3401 23.1828 22.2559 23.702 22.0876C24.2211 21.9122 24.6421 21.6386 24.9648 21.2667C25.2875 20.8879 25.498 20.3898 25.5962 19.7724C25.6944 19.155 25.6453 18.6534 25.4489 18.2676C25.2524 17.8747 24.9262 17.5871 24.4702 17.4047C24.0142 17.2152 23.4494 17.1205 22.7759 17.1205H20.7133L17.8931 34H12.0421ZM26.3118 24.108L30.0581 34H23.702L20.0819 24.108H26.3118ZM46.1851 19.1831C46.2483 18.4886 46.0799 17.9449 45.68 17.552C45.2801 17.1521 44.6066 16.9522 43.6595 16.9522C43.0562 16.9522 42.5511 17.0223 42.1442 17.1626C41.7443 17.3029 41.4321 17.4959 41.2076 17.7414C40.9901 17.987 40.8533 18.2711 40.7972 18.5938C40.734 18.8464 40.7375 19.0779 40.8077 19.2883C40.8849 19.4918 41.0287 19.6777 41.2392 19.8461C41.4566 20.0145 41.7408 20.1653 42.0915 20.2986C42.4493 20.4319 42.8738 20.5511 43.3649 20.6564L45.0486 21.0352C46.1992 21.2878 47.1638 21.621 47.9425 22.0349C48.7283 22.4418 49.3457 22.9259 49.7946 23.4872C50.2436 24.0484 50.5383 24.6763 50.6786 25.3708C50.8259 26.0654 50.8294 26.8231 50.6891 27.6439C50.4506 29.061 49.8999 30.2607 49.037 31.2429C48.174 32.2251 47.0481 32.9722 45.659 33.4844C44.2699 33.9965 42.6633 34.2526 40.8393 34.2526C38.9731 34.2526 37.3876 33.9754 36.0827 33.4212C34.7848 32.86 33.8447 32.0041 33.2624 30.8535C32.6872 29.6959 32.5469 28.2192 32.8415 26.4232H38.3978C38.3137 27.0826 38.3838 27.6369 38.6083 28.0859C38.8328 28.5349 39.1941 28.8751 39.6922 29.1066C40.1903 29.3382 40.8112 29.4539 41.5549 29.4539C42.1863 29.4539 42.7265 29.3767 43.1755 29.2224C43.6245 29.0681 43.9787 28.8541 44.2383 28.5805C44.4979 28.3069 44.6557 27.9947 44.7119 27.6439C44.768 27.3212 44.7119 27.0335 44.5435 26.781C44.3751 26.5284 44.0699 26.3004 43.628 26.097C43.186 25.8935 42.5791 25.7076 41.8074 25.5392L39.7448 25.0762C37.9138 24.6553 36.5317 23.9607 35.5986 22.9926C34.6656 22.0244 34.3358 20.6985 34.6094 19.0147C34.8339 17.6397 35.3987 16.44 36.3037 15.4157C37.2157 14.3845 38.3733 13.5847 39.7764 13.0164C41.1865 12.4411 42.7475 12.1535 44.4593 12.1535C46.1992 12.1535 47.6549 12.4447 48.8265 13.0269C50.0051 13.6092 50.8505 14.4266 51.3626 15.4789C51.8818 16.5312 52.0221 17.766 51.7836 19.1831H46.1851Z" fill="#232426"/>
</svg>
