<svg width="79" height="65" viewBox="0 0 79 65" fill="none" xmlns="http://www.w3.org/2000/svg">
<path d="M1.58313 63.6591L11.9789 1.34091H77.4169L67.0211 63.6591H1.58313Z" fill="#FDFDFD" stroke="#232426" stroke-width="2.68182"/>
<path d="M8.58643 57.6591L16.9177 8.34091H69.4136L61.0823 57.6591H8.58643Z" fill="#FDFDFD" stroke="#232426" stroke-width="2.68182"/>
<path d="M19.0421 41L22.62 19.4482H31.9227C33.5222 19.4482 34.8727 19.7393 35.9742 20.3216C37.0756 20.9039 37.8684 21.7423 38.3525 22.8367C38.8365 23.9311 38.9523 25.243 38.6997 26.7724C38.4472 28.3158 37.8894 29.6172 37.0265 30.6766C36.1706 31.7289 35.0797 32.5287 33.7538 33.0759C32.4348 33.6161 30.9545 33.8862 29.3129 33.8862H23.7566L24.5142 29.3401H28.892C29.5795 29.3401 30.1828 29.2559 30.702 29.0876C31.2211 28.9122 31.6421 28.6386 31.9648 28.2667C32.2875 27.8879 32.498 27.3898 32.5962 26.7724C32.6944 26.155 32.6453 25.6534 32.4489 25.2676C32.2524 24.8747 31.9262 24.5871 31.4702 24.4047C31.0142 24.2152 30.4494 24.1205 29.7759 24.1205H27.7133L24.8931 41H19.0421ZM33.3118 31.108L37.0581 41H30.702L27.0819 31.108H33.3118ZM53.1851 26.1831C53.2483 25.4886 53.0799 24.9449 52.68 24.552C52.2801 24.1521 51.6066 23.9522 50.6595 23.9522C50.0562 23.9522 49.5511 24.0223 49.1442 24.1626C48.7443 24.3029 48.4321 24.4959 48.2076 24.7414C47.9901 24.987 47.8533 25.2711 47.7972 25.5938C47.734 25.8464 47.7375 26.0779 47.8077 26.2883C47.8849 26.4918 48.0287 26.6777 48.2392 26.8461C48.4566 27.0145 48.7408 27.1653 49.0915 27.2986C49.4493 27.4319 49.8738 27.5511 50.3649 27.6564L52.0486 28.0352C53.1992 28.2878 54.1638 28.621 54.9425 29.0349C55.7283 29.4418 56.3457 29.9259 56.7946 30.4872C57.2436 31.0484 57.5383 31.6763 57.6786 32.3708C57.8259 33.0654 57.8294 33.8231 57.6891 34.6439C57.4506 36.061 56.8999 37.2607 56.037 38.2429C55.174 39.2251 54.0481 39.9722 52.659 40.4844C51.2699 40.9965 49.6633 41.2526 47.8393 41.2526C45.9731 41.2526 44.3876 40.9754 43.0827 40.4212C41.7848 39.86 40.8447 39.0041 40.2624 37.8535C39.6872 36.6959 39.5469 35.2192 39.8415 33.4232H45.3978C45.3137 34.0826 45.3838 34.6369 45.6083 35.0859C45.8328 35.5349 46.1941 35.8751 46.6922 36.1066C47.1903 36.3382 47.8112 36.4539 48.5549 36.4539C49.1863 36.4539 49.7265 36.3767 50.1755 36.2224C50.6245 36.0681 50.9787 35.8541 51.2383 35.5805C51.4979 35.3069 51.6557 34.9947 51.7119 34.6439C51.768 34.3212 51.7119 34.0335 51.5435 33.781C51.3751 33.5284 51.0699 33.3004 50.628 33.097C50.186 32.8935 49.5791 32.7076 48.8074 32.5392L46.7448 32.0762C44.9138 31.6553 43.5317 30.9607 42.5986 29.9926C41.6656 29.0244 41.3358 27.6985 41.6094 26.0147C41.8339 24.6397 42.3987 23.44 43.3037 22.4157C44.2157 21.3845 45.3733 20.5847 46.7764 20.0164C48.1865 19.4411 49.7475 19.1535 51.4593 19.1535C53.1992 19.1535 54.6549 19.4447 55.8265 20.0269C57.0051 20.6092 57.8505 21.4266 58.3626 22.4789C58.8818 23.5312 59.0221 24.766 58.7836 26.1831H53.1851Z" fill="#232426"/>
<path d="M23.7669 45.1615V44.3103H28.8392V45.1615H26.7943V50.8643H25.8087V45.1615H23.7669ZM33.5808 50.9635C33.0965 50.9635 32.6794 50.86 32.3295 50.653C31.9817 50.444 31.7129 50.1506 31.5231 49.773C31.3353 49.3932 31.2414 48.9484 31.2414 48.4385C31.2414 47.935 31.3353 47.4913 31.5231 47.1072C31.7129 46.7232 31.9775 46.4235 32.3167 46.208C32.6581 45.9925 33.057 45.8848 33.5136 45.8848C33.7909 45.8848 34.0597 45.9306 34.32 46.0224C34.5803 46.1141 34.8139 46.2581 35.0209 46.4544C35.2278 46.6507 35.391 46.9056 35.5105 47.2192C35.63 47.5307 35.6897 47.9094 35.6897 48.3553V48.6945H31.7823V47.9777H34.752C34.752 47.7259 34.7008 47.503 34.5984 47.3088C34.496 47.1126 34.352 46.9579 34.1664 46.8448C33.9829 46.7317 33.7675 46.6752 33.52 46.6752C33.2512 46.6752 33.0165 46.7413 32.8159 46.8736C32.6175 47.0038 32.4639 47.1744 32.3551 47.3856C32.2484 47.5947 32.1951 47.8219 32.1951 48.0673V48.6273C32.1951 48.9559 32.2527 49.2354 32.3679 49.4658C32.4852 49.6962 32.6485 49.8722 32.8575 49.9938C33.0666 50.1133 33.3109 50.173 33.5904 50.173C33.7717 50.173 33.9371 50.1474 34.0864 50.0962C34.2357 50.0429 34.3648 49.9639 34.4736 49.8594C34.5824 49.7549 34.6656 49.6258 34.7232 49.4722L35.6289 49.6354C35.5564 49.9021 35.4262 50.1357 35.2385 50.3362C35.0529 50.5346 34.8192 50.6893 34.5376 50.8003C34.2581 50.9091 33.9392 50.9635 33.5808 50.9635ZM40.4736 50.9731C40.1621 50.9731 39.8805 50.9155 39.6288 50.8003C39.377 50.6829 39.1776 50.5133 39.0303 50.2914C38.8853 50.0695 38.8127 49.7975 38.8127 49.4754C38.8127 49.198 38.8661 48.9697 38.9727 48.7905C39.0794 48.6113 39.2234 48.4694 39.4048 48.3649C39.5861 48.2604 39.7888 48.1814 40.0128 48.1281C40.2368 48.0748 40.4651 48.0342 40.6976 48.0065C40.9921 47.9723 41.231 47.9446 41.4145 47.9233C41.598 47.8998 41.7313 47.8625 41.8145 47.8113C41.8977 47.7601 41.9393 47.6769 41.9393 47.5617V47.5393C41.9393 47.2598 41.8604 47.0432 41.7025 46.8896C41.5468 46.736 41.3142 46.6592 41.0049 46.6592C40.6827 46.6592 40.4288 46.7307 40.2432 46.8736C40.0597 47.0144 39.9328 47.1712 39.8624 47.344L38.9631 47.1392C39.0698 46.8405 39.2256 46.5995 39.4304 46.416C39.6373 46.2304 39.8752 46.096 40.144 46.0128C40.4128 45.9274 40.6955 45.8848 40.9921 45.8848C41.1883 45.8848 41.3964 45.9082 41.6161 45.9552C41.838 46 42.0449 46.0832 42.2369 46.2048C42.4311 46.3264 42.59 46.5003 42.7138 46.7264C42.8375 46.9504 42.8994 47.2416 42.8994 47.6001V50.8643H41.9649V50.1922H41.9265C41.8646 50.316 41.7718 50.4376 41.6481 50.557C41.5244 50.6765 41.3654 50.7757 41.1713 50.8547C40.9771 50.9336 40.7446 50.9731 40.4736 50.9731ZM40.6816 50.205C40.9462 50.205 41.1723 50.1527 41.3601 50.0482C41.55 49.9437 41.694 49.8071 41.7921 49.6386C41.8924 49.4679 41.9425 49.2855 41.9425 49.0914V48.4577C41.9084 48.4918 41.8422 48.5238 41.7441 48.5537C41.6481 48.5815 41.5382 48.606 41.4145 48.6273C41.2907 48.6465 41.1702 48.6647 41.0529 48.6817C40.9355 48.6967 40.8374 48.7095 40.7584 48.7201C40.5728 48.7436 40.4032 48.7831 40.2496 48.8385C40.0981 48.894 39.9765 48.974 39.8848 49.0785C39.7952 49.181 39.7504 49.3175 39.7504 49.4882C39.7504 49.725 39.8379 49.9042 40.0128 50.0258C40.1877 50.1453 40.4107 50.205 40.6816 50.205ZM46.4656 50.8643V45.9488H47.3841V46.7488H47.4449C47.5473 46.4779 47.7148 46.2666 47.9473 46.1152C48.1799 45.9616 48.4583 45.8848 48.7826 45.8848C49.1111 45.8848 49.3863 45.9616 49.6082 46.1152C49.8322 46.2688 49.9976 46.48 50.1043 46.7488H50.1555C50.2728 46.4864 50.4595 46.2773 50.7155 46.1216C50.9715 45.9637 51.2766 45.8848 51.6307 45.8848C52.0766 45.8848 52.4404 46.0245 52.722 46.304C53.0058 46.5835 53.1476 47.0048 53.1476 47.5681V50.8643H52.1908V47.6577C52.1908 47.3248 52.1001 47.0838 51.9188 46.9344C51.7374 46.7851 51.5209 46.7104 51.2691 46.7104C50.9576 46.7104 50.7155 46.8064 50.5427 46.9984C50.3699 47.1883 50.2835 47.4326 50.2835 47.7313V50.8643H49.3298V47.5969C49.3298 47.3302 49.2466 47.1158 49.0802 46.9536C48.9138 46.7915 48.6972 46.7104 48.4306 46.7104C48.2492 46.7104 48.0817 46.7584 47.9281 46.8544C47.7766 46.9483 47.654 47.0795 47.5601 47.248C47.4684 47.4166 47.4225 47.6118 47.4225 47.8337V50.8643H46.4656Z" fill="#232426"/>
</svg>
